<svg width="20" height="20" viewBox="0 0 20 20" fill="none" xmlns="http://www.w3.org/2000/svg">
<path d="M9.58333 10.4167H5.41667C5.29861 10.4167 5.19965 10.3767 5.11979 10.2967C5.03993 10.2168 5 10.1177 5 9.99944C5 9.88122 5.03993 9.78231 5.11979 9.70273C5.19965 9.62313 5.29861 9.58333 5.41667 9.58333H9.58333V5.41667C9.58333 5.29861 9.62332 5.19965 9.70329 5.11979C9.78325 5.03993 9.88234 5 10.0006 5C10.1188 5 10.2177 5.03993 10.2973 5.11979C10.3769 5.19965 10.4167 5.29861 10.4167 5.41667V9.58333H14.5833C14.7014 9.58333 14.8003 9.62332 14.8802 9.70329C14.9601 9.78325 15 9.88234 15 10.0006C15 10.1188 14.9601 10.2177 14.8802 10.2973C14.8003 10.3769 14.7014 10.4167 14.5833 10.4167H10.4167V14.5833C10.4167 14.7014 10.3767 14.8003 10.2967 14.8802C10.2168 14.9601 10.1177 15 9.99944 15C9.88122 15 9.78231 14.9601 9.70273 14.8802C9.62313 14.8003 9.58333 14.7014 9.58333 14.5833V10.4167Z" fill="#0575E6"/>
</svg>
