<svg width="17" height="17" viewBox="0 0 17 17" fill="none" xmlns="http://www.w3.org/2000/svg">
<path d="M10.8717 6.36875L5.43568 10.6887C5.32768 10.7787 5.29168 10.9587 5.39968 11.0667C5.45368 11.1387 5.52568 11.1748 5.61568 11.1748C5.66968 11.1748 5.74168 11.1567 5.77768 11.1207L11.2137 6.80075C11.3217 6.71075 11.3577 6.53075 11.2497 6.42275C11.1597 6.29675 10.9977 6.27875 10.8717 6.36875Z" fill="#0575E6"/>
<path d="M6.89363 8.29428C6.96563 8.29428 7.03763 8.29428 7.10963 8.27628C7.84763 8.16828 8.36963 7.46628 8.24363 6.71028C8.18963 6.35028 7.99163 6.02628 7.70363 5.81028C7.41563 5.59428 7.05563 5.50428 6.69563 5.55828C6.33563 5.61228 6.01163 5.81028 5.79563 6.09828C5.57963 6.38628 5.48963 6.74628 5.54363 7.10628C5.65163 7.80828 6.24563 8.29428 6.89363 8.29428ZM6.76763 6.11628C6.80363 6.11628 6.85763 6.09828 6.89363 6.09828C7.28963 6.09828 7.64963 6.38628 7.70363 6.80028C7.77563 7.25028 7.46963 7.66428 7.01963 7.73628C6.56963 7.80828 6.15563 7.50228 6.08363 7.05228C6.01163 6.60228 6.33563 6.18828 6.76763 6.11628Z" fill="#0575E6"/>
<path d="M9.77327 9.19434C9.01727 9.19434 8.40527 9.80634 8.40527 10.5623C8.40527 11.3183 9.01727 11.9303 9.77327 11.9303C10.5293 11.9303 11.1413 11.3183 11.1413 10.5623C11.1233 9.80634 10.5113 9.19434 9.77327 9.19434ZM9.77327 11.3723C9.32327 11.3723 8.94527 10.9943 8.94527 10.5443C8.94527 10.0943 9.32327 9.71634 9.77327 9.71634C10.2233 9.71634 10.6013 10.0943 10.6013 10.5443C10.5833 11.0123 10.2233 11.3723 9.77327 11.3723Z" fill="#0575E6"/>
<path d="M16.5055 8.56473C16.5055 8.54673 16.5235 8.51073 16.5235 8.49273C16.5235 7.71873 15.7135 7.32273 15.0115 6.98073C14.5075 6.72873 13.9675 6.45873 13.8235 6.13473C13.6795 5.79273 13.8775 5.23473 14.0755 4.71273C14.3455 3.97473 14.6155 3.21873 14.1115 2.71473C13.6075 2.21073 12.8875 2.39073 12.1675 2.55273C11.6635 2.66073 11.1415 2.78673 10.7995 2.64273C10.4575 2.49873 10.1695 2.04873 9.89949 1.61673C9.50349 1.00473 9.07149 0.302734 8.31549 0.302734C7.55949 0.302734 7.12749 1.00473 6.74949 1.63473C6.47949 2.08473 6.20949 2.53473 5.86749 2.67873C5.52549 2.82273 4.98549 2.69673 4.48149 2.57073C3.76149 2.39073 3.02349 2.21073 2.53749 2.69673C2.03349 3.20073 2.28549 3.95673 2.51949 4.69473C2.69949 5.23473 2.86149 5.77473 2.71749 6.13473C2.57349 6.47673 2.06949 6.72873 1.58349 6.98073C0.899488 7.34073 0.125488 7.73673 0.125488 8.49273C0.125488 8.51073 0.125488 8.54673 0.143488 8.56473C0.143488 8.58273 0.125488 8.61873 0.125488 8.63673C0.125488 9.39273 0.899488 9.80673 1.58349 10.1487C2.06949 10.4007 2.57349 10.6527 2.71749 10.9947C2.86149 11.3367 2.68149 11.8947 2.51949 12.4347C2.28549 13.1727 2.03349 13.9287 2.53749 14.4327C3.04149 14.9367 3.77949 14.7387 4.48149 14.5587C4.98549 14.4327 5.52549 14.3067 5.86749 14.4507C6.20949 14.5947 6.47949 15.0447 6.74949 15.4947C7.12749 16.1247 7.55949 16.8267 8.31549 16.8267C9.07149 16.8267 9.52149 16.1247 9.89949 15.5127C10.1695 15.0807 10.4575 14.6307 10.7995 14.4867C11.1595 14.3427 11.6635 14.4507 12.1675 14.5767C12.8695 14.7387 13.6075 14.9187 14.1115 14.4147C14.6155 13.9107 14.3455 13.1547 14.0755 12.4167C13.8775 11.8767 13.6795 11.3367 13.8235 10.9947C13.9675 10.6527 14.4895 10.4007 15.0115 10.1487C15.7135 9.78873 16.5235 9.39273 16.5235 8.63673C16.5235 8.60073 16.5055 8.58273 16.5055 8.56473ZM14.7595 9.66273C14.1655 9.96873 13.5355 10.2747 13.3195 10.7967C13.0855 11.3367 13.3375 11.9847 13.5535 12.6147C13.7695 13.2087 13.9855 13.7847 13.7155 14.0367C13.4275 14.3247 12.8695 14.1987 12.2755 14.0547C11.6815 13.9107 11.0875 13.7847 10.5655 14.0007C10.0615 14.2167 9.73749 14.7207 9.43149 15.2247C9.08949 15.7647 8.76549 16.2867 8.29749 16.2867C7.84749 16.2867 7.52349 15.7647 7.18149 15.2067C6.87549 14.6847 6.55149 14.1627 6.04749 13.9467C5.52549 13.7307 4.91349 13.8747 4.31949 14.0367C3.72549 14.1807 3.16749 14.3247 2.87949 14.0547C2.60949 13.7847 2.78949 13.2087 2.98749 12.6147C3.18549 11.9847 3.40149 11.3367 3.16749 10.8147C2.95149 10.2927 2.35749 9.98673 1.78149 9.69873C1.18749 9.39273 0.629488 9.10473 0.629488 8.65473C0.629488 8.63673 0.629488 8.60073 0.611488 8.58273C0.611488 8.56473 0.629488 8.52873 0.629488 8.51073C0.629488 8.07873 1.18749 7.79073 1.78149 7.46673C2.35749 7.17873 2.95149 6.87273 3.16749 6.35073C3.38349 5.81073 3.18549 5.16273 2.98749 4.55073C2.78949 3.93873 2.60949 3.36273 2.87949 3.11073C3.16749 2.82273 3.72549 2.96673 4.31949 3.12873C4.91349 3.27273 5.52549 3.43473 6.04749 3.21873C6.55149 3.00273 6.87549 2.48073 7.18149 1.95873C7.52349 1.40073 7.82949 0.878734 8.29749 0.878734C8.76549 0.878734 9.08949 1.40073 9.43149 1.94073C9.75549 2.44473 10.0795 2.94873 10.5655 3.16473C11.0875 3.38073 11.6815 3.23673 12.2755 3.11073C12.8695 2.96673 13.4275 2.84073 13.7155 3.12873C13.9855 3.38073 13.7695 3.95673 13.5535 4.55073C13.3195 5.18073 13.0855 5.82873 13.3195 6.36873C13.5355 6.89073 14.1655 7.19673 14.7595 7.50273C15.3895 7.80873 15.9655 8.11473 15.9655 8.54673C15.9655 8.56473 15.9655 8.60073 15.9835 8.61873C15.9835 8.63673 15.9655 8.67273 15.9655 8.69073C15.9835 9.05073 15.3895 9.35673 14.7595 9.66273Z" fill="#0575E6"/>
</svg>
