<svg width="88" height="96" viewBox="0 0 88 96" fill="none" xmlns="http://www.w3.org/2000/svg">
<path d="M1.5931 35.9526C1.24615 35.6738 1.03546 35.3253 0.961022 34.907C0.886669 34.4887 0.998238 34.0503 1.29573 33.5918C6.35212 26.8685 12.587 21.5983 20.0002 17.7812C27.4135 13.9641 35.3224 12.0555 43.7268 12.0555C52.221 12.0555 60.2344 13.8882 67.767 17.5534C75.2996 21.2187 81.5724 26.4843 86.5855 33.3501C87.0254 33.8892 87.1601 34.3942 86.9898 34.8651C86.8194 35.3361 86.5235 35.711 86.1021 35.9898C85.6807 36.2687 85.2267 36.3914 84.74 36.358C84.2533 36.3247 83.8274 36.0408 83.4624 35.5065C78.9079 29.0993 73.1168 24.2086 66.0892 20.8346C59.0616 17.4605 51.6075 15.7735 43.7268 15.7735C35.9129 15.7735 28.5514 17.4915 21.6421 20.9275C14.733 24.3635 8.99185 29.2232 4.41879 35.5065C3.9974 36.1076 3.52648 36.4174 3.00601 36.436C2.48546 36.4546 2.01449 36.2934 1.5931 35.9526ZM57.4739 95.7094C49.344 93.615 42.6517 89.4912 37.397 83.338C32.1423 77.1849 29.5149 69.6623 29.5149 60.77C29.5149 56.8661 30.9339 53.6067 33.772 50.9918C36.61 48.3768 39.9924 47.0693 43.9191 47.0693C47.8458 47.0693 51.195 48.3768 53.9669 50.9918C56.7386 53.6067 58.1245 56.8661 58.1245 60.77C58.1245 63.5856 59.184 65.9533 61.3029 67.873C63.4218 69.7928 65.9221 70.7526 68.8039 70.7526C71.6856 70.7526 74.1551 69.7844 76.2124 67.848C78.2696 65.9115 79.2982 63.5522 79.2982 60.77C79.2982 51.2681 75.8033 43.2816 68.8134 36.8105C61.8234 30.3395 53.4766 27.104 43.773 27.104C34.0694 27.104 25.7474 30.3487 18.8073 36.8381C11.8671 43.3275 8.39698 51.2955 8.39698 60.7421C8.39698 62.7064 8.62472 65.1618 9.08018 68.1083C9.53564 71.0548 10.4171 74.4614 11.7245 78.328C11.9042 78.8671 11.8996 79.3411 11.7106 79.7501C11.5216 80.1591 11.1668 80.4844 10.6463 80.7261C10.1258 80.9677 9.64096 80.9765 9.19171 80.7524C8.74245 80.5283 8.42796 80.1601 8.24824 79.6479C6.97796 76.3203 6.06551 73.1368 5.51088 70.0973C4.95634 67.058 4.67906 63.9489 4.67906 60.77C4.67906 50.1877 8.52056 41.3161 16.2035 34.1552C23.8865 26.9943 33.0624 23.4139 43.7311 23.4139C54.4793 23.4139 63.7138 26.9943 71.4348 34.1552C79.1557 41.3161 83.0162 50.1877 83.0162 60.77C83.0162 64.6653 81.6404 67.9179 78.8889 70.5279C76.1373 73.1378 72.7851 74.4427 68.8323 74.4427C64.9098 74.4427 61.5249 73.1378 58.6775 70.5279C55.8302 67.9179 54.4066 64.6653 54.4066 60.77C54.4066 57.9877 53.3741 55.6284 51.309 53.6919C49.244 51.7555 46.7785 50.7873 43.9127 50.7873C40.9961 50.7873 38.487 51.7472 36.3854 53.6669C34.2837 55.5866 33.2328 57.9543 33.2328 60.77C33.2328 68.7692 35.6108 75.449 40.3667 80.8093C45.1225 86.1697 51.1657 89.897 58.4963 91.9915C59.0692 92.175 59.468 92.4809 59.6928 92.9093C59.9176 93.3377 59.9495 93.7966 59.7884 94.2861C59.6273 94.7144 59.367 95.099 59.0075 95.4398C58.6482 95.7806 58.137 95.8705 57.4739 95.7094ZM16.5578 10.8844C16.2233 11.1013 15.8112 11.14 15.3217 11.0005C14.8322 10.8612 14.4882 10.5622 14.2899 10.1036C14.0917 9.64507 14.0266 9.20048 14.0948 8.76983C14.1629 8.33918 14.4262 7.98442 14.8848 7.70553C19.3339 5.22692 24.0155 3.35867 28.9293 2.1008C33.8432 0.842841 38.8377 0.213867 43.9127 0.213867C48.9866 0.213867 53.9416 0.838173 58.7777 2.08678C63.6139 3.33539 68.2915 5.12776 72.8105 7.46387C73.4735 7.8047 73.8499 8.21057 73.9398 8.6815C74.0296 9.15243 73.9847 9.60789 73.805 10.0479C73.6253 10.4878 73.3 10.8069 72.8291 11.0052C72.3581 11.2035 71.8748 11.1632 71.3791 10.8844C67.1716 8.52349 62.7464 6.77451 58.1037 5.63747C53.461 4.50035 48.7155 3.93179 43.8674 3.93179C39.1015 3.93179 34.4319 4.53752 29.8588 5.749C25.2857 6.96039 20.8521 8.6722 16.5578 10.8844ZM31.7457 94.2036C27.1788 89.3331 23.6111 84.2845 21.0427 79.0576C18.4742 73.8308 17.1899 67.7339 17.1899 60.7668C17.1899 53.5623 19.8032 47.5046 25.0299 42.5939C30.2565 37.683 36.5522 35.2276 43.917 35.2276C51.2819 35.2276 57.5855 37.683 62.8277 42.5939C68.07 47.5046 70.6912 53.5633 70.6912 60.77C70.6912 61.3277 70.5208 61.7769 70.18 62.1177C69.8392 62.4586 69.3899 62.629 68.8323 62.629C68.3737 62.629 67.9492 62.4586 67.5588 62.1177C67.1684 61.7769 66.9732 61.3277 66.9732 60.77C66.9732 54.6044 64.6921 49.4256 60.1297 45.2336C55.5674 41.0416 50.1624 38.9457 43.9149 38.9457C37.6673 38.9457 32.2709 41.0416 27.7256 45.2336C23.1804 49.4256 20.9078 54.602 20.9078 60.7628C20.9078 67.4165 22.0666 73.0345 24.3842 77.6169C26.7017 82.1993 30.0355 86.8424 34.3855 91.5462C34.8688 92.0413 35.064 92.5336 34.971 93.0232C34.8781 93.5127 34.6829 93.9062 34.3855 94.2037C34.026 94.563 33.6015 94.7582 33.112 94.7893C32.6225 94.8202 32.167 94.625 31.7457 94.2036ZM67.8656 85.8011C60.882 85.8011 54.7985 83.4285 49.615 78.6833C44.4316 73.938 41.8399 67.9669 41.8399 60.77C41.8399 60.2742 42.0085 59.8405 42.3458 59.4687C42.6831 59.0969 43.1277 58.9109 43.6797 58.9109C44.2316 58.9109 44.6826 59.0969 45.0327 59.4687C45.3828 59.8405 45.5578 60.2742 45.5578 60.77C45.5578 67.0019 47.7793 72.1121 52.2223 76.1005C56.6652 80.0889 61.8797 82.0832 67.8656 82.0832C68.6587 82.0832 69.4984 82.0429 70.3845 81.9623C71.2706 81.8818 72.166 81.7609 73.0707 81.5998C73.5479 81.5007 73.9553 81.5703 74.293 81.8089C74.6306 82.0475 74.8801 82.4427 75.0412 82.9946C75.2023 83.4853 75.1124 83.9146 74.7717 84.2824C74.4309 84.6504 74.0002 84.915 73.4796 85.0761C72.5873 85.2929 71.6284 85.468 70.603 85.6012C69.5774 85.7345 68.6649 85.8011 67.8656 85.8011Z" fill="white"/>
</svg>
