<svg width="38" height="41" viewBox="0 0 38 41" fill="none" xmlns="http://www.w3.org/2000/svg">
<path d="M11.1854 29.0896H15.8477V22.5505C15.8477 22.2723 15.9438 22.0371 16.136 21.8449C16.3282 21.6527 16.5634 21.5566 16.8416 21.5566H20.7927C21.0615 21.5566 21.2923 21.6527 21.4851 21.8449C21.6779 22.0371 21.7744 22.2723 21.7744 22.5505V29.0896H26.4367V18.0224C26.4367 17.8907 26.4078 17.7713 26.3502 17.6643C26.2926 17.5573 26.2144 17.4627 26.1157 17.3804L19.2802 12.2332C19.1485 12.1179 18.9921 12.0603 18.811 12.0603C18.6299 12.0603 18.4735 12.1179 18.3418 12.2332L11.5064 17.3804C11.4076 17.4627 11.3294 17.5573 11.2718 17.6643C11.2142 17.7713 11.1854 17.8907 11.1854 18.0224V29.0896ZM10 29.0896V18.0265C10 17.7097 10.0676 17.4134 10.2029 17.1375C10.3382 16.8617 10.5339 16.6312 10.7902 16.4461L17.6257 11.2701C17.9777 11.0067 18.3723 10.875 18.8095 10.875C19.2468 10.875 19.6424 11.0067 19.9963 11.2701L26.8318 16.4461C27.0881 16.6312 27.2839 16.8617 27.4191 17.1375C27.5544 17.4134 27.622 17.7097 27.622 18.0265V29.0896C27.622 29.4066 27.5037 29.6833 27.267 29.92C27.0304 30.1567 26.7536 30.275 26.4367 30.275H21.583C21.3047 30.275 21.0695 30.1789 20.8773 29.9867C20.6851 29.7945 20.589 29.5593 20.589 29.281V22.7419H17.033V29.281C17.033 29.5593 16.9367 29.7945 16.7442 29.9867C16.5516 30.1789 16.3211 30.275 16.0528 30.275H11.1799C10.8671 30.275 10.5923 30.1567 10.3554 29.92C10.1185 29.6833 10 29.4066 10 29.0896Z" fill="white"/>
</svg>
