<svg width="18" height="27" viewBox="0 0 18 27" fill="none" xmlns="http://www.w3.org/2000/svg">
<path d="M8.99989 15.5C8.15374 15.5 7.4422 15.2115 6.86527 14.6346C6.28835 14.0577 5.99989 13.3462 5.99989 12.5V3.5C5.99989 2.65385 6.28835 1.94231 6.86527 1.36539C7.4422 0.788464 8.15374 0.5 8.99989 0.5C9.84604 0.5 10.5576 0.788464 11.1345 1.36539C11.7114 1.94231 11.9999 2.65385 11.9999 3.5V12.5C11.9999 13.3462 11.7114 14.0577 11.1345 14.6346C10.5576 15.2115 9.84604 15.5 8.99989 15.5ZM8.24989 26V21.4741C6.08449 21.2837 4.22631 20.4241 2.67536 18.8952C1.12439 17.3664 0.250825 15.4971 0.0546751 13.2875C0.0239251 13.0741 0.0787374 12.8894 0.219112 12.7337C0.359487 12.5779 0.536413 12.5 0.749888 12.5C0.963338 12.5 1.1417 12.5764 1.28498 12.7293C1.42825 12.8822 1.52104 13.0654 1.56334 13.2788C1.75951 15.2019 2.57057 16.8029 3.99652 18.0817C5.42247 19.3606 7.09026 20 8.99989 20C10.9345 20 12.6085 19.3543 14.022 18.063C15.4354 16.7716 16.2403 15.1769 16.4364 13.2788C16.4787 13.0654 16.5715 12.8822 16.7148 12.7293C16.8581 12.5764 17.0364 12.5 17.2499 12.5C17.4634 12.5 17.6403 12.5779 17.7807 12.7337C17.921 12.8894 17.9758 13.0741 17.9451 13.2875C17.7489 15.4471 16.8816 17.2991 15.3432 18.8433C13.8047 20.3875 11.9403 21.2644 9.74989 21.4741V26C9.74989 26.2135 9.67825 26.3918 9.53498 26.5351C9.39173 26.6784 9.21336 26.75 8.99989 26.75C8.78641 26.75 8.60805 26.6784 8.4648 26.5351C8.32152 26.3918 8.24989 26.2135 8.24989 26ZM8.99989 14C9.42489 14 9.78114 13.8563 10.0686 13.5688C10.3561 13.2813 10.4999 12.925 10.4999 12.5V3.5C10.4999 3.075 10.3561 2.71875 10.0686 2.43125C9.78114 2.14375 9.42489 2 8.99989 2C8.57489 2 8.21864 2.14375 7.93114 2.43125C7.64364 2.71875 7.49989 3.075 7.49989 3.5V12.5C7.49989 12.925 7.64364 13.2813 7.93114 13.5688C8.21864 13.8563 8.57489 14 8.99989 14Z" fill="white"/>
</svg>
