<svg width="17" height="17" viewBox="0 0 17 17" fill="none" xmlns="http://www.w3.org/2000/svg">
<path d="M11.6733 16.4772C11.3053 16.4772 10.9845 16.3404 10.7107 16.0666C10.4369 15.7928 10.3 15.4719 10.3 15.1039V1.37057C10.3 1.00259 10.4369 0.681696 10.7107 0.407899C10.9845 0.134125 11.3053 -0.00276184 11.6733 -0.00276184H15.1067C15.4747 -0.00276184 15.7955 0.134125 16.0693 0.407899C16.3431 0.681696 16.48 1.00259 16.48 1.37057V15.1039C16.48 15.4719 16.3431 15.7928 16.0693 16.0666C15.7955 16.3404 15.4747 16.4772 15.1067 16.4772H11.6733ZM1.37333 16.4772C1.00535 16.4772 0.684458 16.3404 0.410661 16.0666C0.136887 15.7928 0 15.4719 0 15.1039V1.37057C0 1.00259 0.136887 0.681696 0.410661 0.407899C0.684458 0.134125 1.00535 -0.00276184 1.37333 -0.00276184H4.80667C5.17465 -0.00276184 5.49554 0.134125 5.76934 0.407899C6.04311 0.681696 6.18 1.00259 6.18 1.37057V15.1039C6.18 15.4719 6.04311 15.7928 5.76934 16.0666C5.49554 16.3404 5.17465 16.4772 4.80667 16.4772H1.37333ZM11.6733 15.1039H15.1067V1.37057H11.6733V15.1039ZM1.37333 15.1039H4.80667V1.37057H1.37333V15.1039Z" fill="#0575E6"/>
</svg>
