<svg width="17" height="20" viewBox="0 0 17 20" fill="none" xmlns="http://www.w3.org/2000/svg">
<path d="M0 18.211V1.78624C0 1.24471 0.178615 0.811623 0.535848 0.486973C0.89308 0.162324 1.30986 0 1.78618 0C1.94213 0 2.1002 0.0205652 2.26038 0.0616993C2.42061 0.102796 2.57867 0.164461 2.73459 0.246692L15.6549 8.50159C15.93 8.6944 16.1363 8.91413 16.2738 9.16079C16.4113 9.40745 16.48 9.68672 16.48 9.99862C16.48 10.3105 16.4113 10.5898 16.2738 10.8364C16.1363 11.0831 15.93 11.3028 15.6549 11.4956L2.73459 19.7505C2.57867 19.8328 2.42061 19.8944 2.26038 19.9355C2.1002 19.9767 1.94213 19.9972 1.78618 19.9972C1.30986 19.9972 0.89308 19.8349 0.535848 19.5103C0.178615 19.1856 0 18.7525 0 18.211ZM2.21151 17.4072L13.907 9.99862L2.21151 2.59006V17.4072Z" fill="#0575E6"/>
</svg>
