<svg width="38" height="40" viewBox="0 0 38 40" fill="none" xmlns="http://www.w3.org/2000/svg">
<path d="M23.1502 13.88C23.1502 12.851 22.7414 11.8641 22.0137 11.1364C21.2861 10.4088 20.2992 10 19.2702 10C18.2411 10 17.2543 10.4088 16.5266 11.1364C15.799 11.8641 15.3901 12.851 15.3901 13.88V15.8201C15.3901 16.8491 15.799 17.836 16.5266 18.5637C17.2543 19.2913 18.2411 19.7001 19.2702 19.7001C20.2992 19.7001 21.2861 19.2913 22.0137 18.5637C22.7414 17.836 23.1502 16.8491 23.1502 15.8201V13.88Z" stroke="white" stroke-width="1.5" stroke-miterlimit="10"/>
<path d="M10.54 29.4903C12.0145 25.4938 15.3901 22.7002 19.2701 22.7002C23.1502 22.7002 26.5258 25.4938 28.0002 29.4903" stroke="white" stroke-width="1.5" stroke-miterlimit="10"/>
</svg>
