<svg width="28" height="26" viewBox="0 0 28 26" fill="none" xmlns="http://www.w3.org/2000/svg">
<path d="M0 5.125C0 2.70876 1.95876 0.75 4.375 0.75H6.125C6.60824 0.75 7 1.14175 7 1.625C7 2.10825 6.60824 2.5 6.125 2.5H4.375C2.92525 2.5 1.75 3.67525 1.75 5.125V6.875C1.75 7.35824 1.35825 7.75 0.875 7.75C0.391755 7.75 0 7.35824 0 6.875V5.125ZM21 1.625C21 1.14175 21.3918 0.75 21.875 0.75H23.625C26.0412 0.75 28 2.70876 28 5.125V6.875C28 7.35824 27.6082 7.75 27.125 7.75C26.6418 7.75 26.25 7.35824 26.25 6.875V5.125C26.25 3.67525 25.0747 2.5 23.625 2.5H21.875C21.3918 2.5 21 2.10825 21 1.625ZM0.875 18.25C1.35825 18.25 1.75 18.6418 1.75 19.125V20.875C1.75 22.3247 2.92525 23.5 4.375 23.5H6.125C6.60824 23.5 7 23.8918 7 24.375C7 24.8582 6.60824 25.25 6.125 25.25H4.375C1.95876 25.25 0 23.2912 0 20.875V19.125C0 18.6418 0.391755 18.25 0.875 18.25ZM27.125 18.25C27.6082 18.25 28 18.6418 28 19.125V20.875C28 23.2912 26.0412 25.25 23.625 25.25H21.875C21.3918 25.25 21 24.8582 21 24.375C21 23.8918 21.3918 23.5 21.875 23.5H23.625C25.0747 23.5 26.25 22.3247 26.25 20.875V19.125C26.25 18.6418 26.6418 18.25 27.125 18.25ZM6.125 6C6.60824 6 7 6.39176 7 6.875V19.125C7 19.6082 6.60824 20 6.125 20C5.64176 20 5.25 19.6082 5.25 19.125V6.875C5.25 6.39176 5.64176 6 6.125 6ZM12.25 6.875C12.25 6.39176 11.8582 6 11.375 6C10.8918 6 10.5 6.39176 10.5 6.875V19.125C10.5 19.6082 10.8918 20 11.375 20C11.8582 20 12.25 19.6082 12.25 19.125V6.875ZM16.625 6C17.1082 6 17.5 6.39176 17.5 6.875V19.125C17.5 19.6082 17.1082 20 16.625 20C16.1418 20 15.75 19.6082 15.75 19.125V6.875C15.75 6.39176 16.1418 6 16.625 6ZM22.75 6.875C22.75 6.39176 22.3582 6 21.875 6C21.3918 6 21 6.39176 21 6.875V19.125C21 19.6082 21.3918 20 21.875 20C22.3582 20 22.75 19.6082 22.75 19.125V6.875Z" fill="white"/>
</svg>
